<svg width="34" height="37" viewBox="0 0 34 37" fill="none" xmlns="http://www.w3.org/2000/svg">
<g clip-path="url(#clip0_450_2277)">
<path d="M19.1998 37.0002C18.4786 36.7577 17.73 36.5758 17.0426 36.2582C16.2364 35.8854 15.6065 35.2502 15.1236 34.4893C14.9677 34.2432 14.7967 34.1753 14.5248 34.1753C10.9164 34.1834 7.30891 34.1843 3.70054 34.1789C2.18561 34.1771 1.04542 33.5048 0.369463 32.1096C0.186077 31.7305 0.118747 31.2889 0.0274965 30.87C-0.0150279 30.6736 0.00800612 30.4619 0.00800612 30.2574C0.00800612 25.8021 0.0168654 21.3476 3.28022e-05 16.8923C-0.00351089 15.8599 0.279985 14.9632 0.892158 14.1461C1.9597 12.722 3.00863 11.2842 4.05136 9.841C4.16653 9.68175 4.23209 9.45464 4.24361 9.25468C4.27107 8.77512 4.24361 8.29195 4.2569 7.81058C4.26221 7.61333 4.194 7.52013 4.02213 7.42874C3.26998 7.03062 2.85625 6.39091 2.84474 5.51866C2.82967 4.3994 2.82082 3.27832 2.84651 2.15996C2.87486 0.904975 3.76521 0.0119153 5.00019 0.00829606C9.20922 -0.00256181 13.4191 -0.00165699 17.629 0.00829606C18.9057 0.0110105 19.7845 0.914023 19.8155 2.25045C19.8403 3.32176 19.8341 4.39397 19.8155 5.46528C19.7996 6.35653 19.3929 7.01976 18.6177 7.45046C18.5203 7.50475 18.4742 7.65586 18.4087 7.76443C18.398 7.78163 18.4104 7.81239 18.4069 7.83591C18.2297 9.05109 18.592 10.05 19.3956 10.9829C20.2647 11.9927 20.9876 13.1318 21.792 14.2004C22.3838 14.9867 22.6593 15.8644 22.6549 16.8498C22.6478 18.692 22.6531 20.5342 22.6531 22.3764C22.6531 22.5076 22.6531 22.6388 22.6531 22.8315C22.8073 22.7465 22.918 22.6895 23.0261 22.627C23.9678 22.0796 24.891 21.4951 25.8531 20.9893C29.1833 19.2376 33.34 21.4146 33.9247 25.1976C34.3039 27.647 33.2683 29.9145 31.1323 31.1921C28.3168 32.876 25.4819 34.5255 22.6593 36.1958C21.9346 36.6246 21.147 36.8481 20.3338 37.002H19.2016L19.1998 37.0002ZM1.43789 28.3881C1.53534 28.3935 1.59292 28.3998 1.65051 28.3998C5.95522 28.3998 10.259 28.4025 14.5637 28.3899C14.7028 28.3899 14.8942 28.2722 14.973 28.151C15.4142 27.4678 15.9334 26.8607 16.62 26.4391C18.0534 25.5596 19.5019 24.7054 20.9513 23.8522C21.1603 23.7291 21.2427 23.597 21.241 23.3455C21.2294 21.6118 21.2348 19.8773 21.2348 18.1437C21.2348 18.0287 21.2348 17.9138 21.2348 17.7998H1.43789V28.3871V28.3881ZM1.33246 16.3186H21.1913C21.171 15.8608 20.9707 15.4998 20.7209 15.1595C19.6463 13.6964 18.5681 12.2361 17.5015 10.7666C17.3695 10.5839 17.2251 10.5495 17.0248 10.5504C15.9405 10.5576 14.8561 10.554 13.7708 10.554C12.7573 10.554 11.743 10.5594 10.7295 10.5522C10.1864 10.5486 9.86923 10.2129 9.92859 9.73061C9.97731 9.3343 10.2794 9.11081 10.7862 9.10991C12.7192 9.1081 14.6532 9.10991 16.5863 9.10991C16.7112 9.10991 16.8361 9.10991 16.9717 9.10991V7.68752H5.66818C5.66818 8.30914 5.65666 8.90994 5.67261 9.50893C5.68324 9.88896 5.57515 10.2038 5.34924 10.5079C4.20906 12.0415 3.0733 13.5779 1.95793 15.1306C1.71518 15.469 1.56369 15.8753 1.33335 16.3204L1.33246 16.3186ZM21.4846 25.1931C20.0901 26.0247 18.7152 26.7938 17.3916 27.6461C15.9254 28.5898 15.2317 30.4827 15.6366 32.1883C16.3214 35.072 19.377 36.4102 21.9417 34.9399C23.143 34.2513 24.3302 33.5347 25.5226 32.8298C25.5891 32.79 25.6484 32.7375 25.7202 32.6841C24.308 30.1868 22.9065 27.7085 21.4837 25.194L21.4846 25.1931ZM11.3461 1.44877C9.27034 1.44877 7.19551 1.44696 5.11979 1.44968C4.51647 1.44968 4.25867 1.71208 4.25513 2.32917C4.24981 3.31633 4.25158 4.30439 4.25513 5.29155C4.2569 5.97289 4.5023 6.21719 5.18269 6.21719C9.27477 6.21719 13.3669 6.21719 17.4589 6.21719C18.1446 6.21719 18.4033 5.95841 18.406 5.26441C18.4095 4.3252 18.4078 3.386 18.406 2.44679C18.4051 1.6985 18.1606 1.44968 17.4315 1.44877C15.4036 1.44877 13.3748 1.44877 11.347 1.44877H11.3461ZM22.7213 24.4901C24.1353 26.9901 25.5395 29.4729 26.964 31.992C28.2495 31.2238 29.5367 30.5189 30.7575 29.71C32.6003 28.4885 33.1327 25.8916 32.0032 23.9571C30.8594 21.9973 28.424 21.239 26.4688 22.2895C25.2303 22.9546 24.0352 23.7056 22.8214 24.4177C22.7922 24.4349 22.7656 24.4575 22.7213 24.4901ZM14.1961 29.8629H1.45826C1.17122 31.7766 2.40177 32.771 3.85026 32.7511C7.18576 32.7041 10.5222 32.7357 13.8577 32.7357H14.1961V29.8629Z" fill="#252525"/>
<path d="M12.0373 24.0819C12.0373 24.7134 12.0373 25.3242 12.0373 25.9349C12.0364 26.5909 11.791 26.942 11.3321 26.9483C10.8696 26.9547 10.6234 26.6099 10.6225 25.9512C10.6216 25.3396 10.6225 24.7279 10.6225 24.0647C10.0581 24.0647 9.52127 24.0647 8.9844 24.0647C8.81961 24.0647 8.65306 24.0737 8.49005 24.0583C8.06746 24.0194 7.79814 23.7317 7.8008 23.3363C7.80346 22.9418 8.07721 22.6423 8.49979 22.6269C9.06501 22.6061 9.63112 22.6197 10.1972 22.6188C10.3248 22.6188 10.4515 22.6188 10.6225 22.6188C10.6225 22.0017 10.6225 21.4153 10.6225 20.8299C10.6225 20.7458 10.6207 20.6616 10.6225 20.5775C10.6349 20.0626 10.8918 19.7478 11.3073 19.7351C11.7272 19.7224 12.0258 20.0545 12.0346 20.5793C12.0461 21.2407 12.0373 21.9021 12.0373 22.6197C12.4253 22.6197 12.7974 22.6197 13.1695 22.6197C13.4645 22.6197 13.7586 22.6142 14.0537 22.6215C14.5391 22.6332 14.859 22.9264 14.8545 23.348C14.8501 23.7706 14.5338 24.0565 14.0421 24.0629C13.5 24.071 12.9578 24.0638 12.4156 24.0656C12.3004 24.0656 12.1852 24.0755 12.0373 24.0819Z" fill="#252525"/>
<path d="M8.48551 9.81909C8.4926 10.2 8.17101 10.5402 7.79715 10.5475C7.42152 10.5547 7.09816 10.2308 7.09284 9.84171C7.08753 9.45173 7.3976 9.11966 7.77589 9.11242C8.14798 9.10518 8.4802 9.43544 8.4864 9.81909H8.48551Z" fill="#252525"/>
</g>
<defs>
<clipPath id="clip0_450_2277">
<rect width="34" height="37" fill="white"/>
</clipPath>
</defs>
</svg>
