<svg width="44" height="38" viewBox="0 0 44 38" fill="none" xmlns="http://www.w3.org/2000/svg">
<g opacity="0.5" clip-path="url(#clip0_382_1134)">
<path d="M0 15.2041H20.616C20.616 15.391 20.616 15.5542 20.616 15.7163C20.616 20.8778 20.5931 26.0403 20.6275 31.2018C20.6401 33.1178 19.8575 34.4675 18.0386 35.2555C18.0386 35.7193 18.0443 36.1955 18.0374 36.6717C18.026 37.4473 17.4648 38.0113 16.7292 37.9989C16.0097 37.9877 15.4749 37.4304 15.4623 36.6728C15.4566 36.2934 15.4623 35.9141 15.4623 35.5009H5.15372C5.15372 35.8612 5.15602 36.2349 5.15372 36.6087C5.14684 37.4282 4.61666 37.9989 3.86615 37.9989C3.11564 37.9989 2.58432 37.4282 2.57743 36.6098C2.57399 36.2023 2.70367 35.7328 2.53842 35.4041C2.38464 35.0979 1.91758 34.9482 1.59626 34.7197C0.822805 34.1703 0.335089 33.4307 0.0963956 32.5268C0.0722967 32.4356 0.0321319 32.3478 0 32.2588L0 15.2041ZM7.72886 20.2766C7.72886 19.8421 7.74263 19.4064 7.72542 18.9719C7.69788 18.2785 7.1436 17.7482 6.45965 17.7381C5.76078 17.728 5.17323 18.2695 5.15831 18.9787C5.13995 19.8342 5.1411 20.6909 5.15831 21.5464C5.17208 22.2601 5.74587 22.8039 6.44473 22.8016C7.14475 22.7994 7.70361 22.2568 7.72657 21.5397C7.74034 21.1187 7.72886 20.6976 7.72771 20.2766H7.72886Z" fill="white"/>
<path d="M0 3.29927C0.0642637 3.07075 0.120495 2.83885 0.195086 2.61483C0.705754 1.09397 2.15743 0.018905 3.79271 0.0132764C8.14428 -0.00135805 12.4947 -0.00811241 16.8463 0.0155278C18.8855 0.0267851 20.5805 1.67372 20.6034 3.67076C20.6378 6.61116 20.6137 9.55155 20.6137 12.4919C20.6137 12.5325 20.6023 12.573 20.5873 12.6709H0C0 9.54705 0 6.42316 0 3.29927ZM7.73001 7.62881C7.73001 7.19428 7.74263 6.75863 7.72771 6.3241C7.70361 5.60926 7.13672 5.06891 6.43555 5.07341C5.73439 5.07792 5.17094 5.62164 5.15831 6.33873C5.14454 7.18077 5.14454 8.02281 5.15831 8.86373C5.16979 9.58195 5.72865 10.1279 6.42867 10.1358C7.14705 10.1437 7.70935 9.59208 7.72886 8.8491C7.73919 8.44271 7.73116 8.0352 7.73001 7.62881Z" fill="white"/>
<path d="M23.3643 20.2902H43.9803V20.763C43.9803 25.1511 43.9803 29.5392 43.9803 33.9272C43.9803 36.3971 42.3576 37.9979 39.8548 37.999C35.7339 37.999 31.613 37.999 27.4921 37.999C24.9892 37.999 23.3654 36.3971 23.3654 33.9284C23.3654 29.5403 23.3654 25.1522 23.3654 20.7641V20.2891L23.3643 20.2902ZM38.8254 27.9023C38.8392 25.1083 36.528 22.8107 33.6969 22.8028C30.8739 22.7938 28.5386 25.0543 28.5191 27.8112C28.4996 30.6097 30.7993 32.9163 33.6258 32.9332C36.4706 32.9501 38.8128 30.684 38.8254 27.9023Z" fill="white"/>
<path d="M36.2195 17.7199H23.4172C23.1464 15.6148 23.6972 13.9487 25.6125 13.0402C26.0624 12.8275 26.5983 12.6946 27.0963 12.6901C30.0857 12.6575 33.0752 12.6732 36.0646 12.6732C36.1059 12.6732 36.1472 12.6834 36.2195 12.6935V17.7199Z" fill="white"/>
<path d="M43.9572 17.7209C43.8654 17.7266 43.7965 17.7356 43.7288 17.7356C42.1154 17.7356 40.5019 17.7356 38.8574 17.7356V12.7239C41.6908 12.2882 44.3738 13.7697 43.9572 17.7198V17.7209Z" fill="white"/>
<path d="M36.2481 27.8484C36.2573 29.2544 35.0983 30.4004 33.6707 30.3993C32.2592 30.3993 31.1048 29.2713 31.0967 27.8867C31.0887 26.4807 32.2454 25.3358 33.6742 25.3369C35.0857 25.3369 36.239 26.4638 36.2481 27.8495V27.8484Z" fill="white"/>
</g>
<defs>
<clipPath id="clip0_382_1134">
<rect width="44" height="38" fill="white"/>
</clipPath>
</defs>
</svg>
