<svg width="38" height="35" viewBox="0 0 38 35" fill="none" xmlns="http://www.w3.org/2000/svg">
<g opacity="0.5" clip-path="url(#clip0_379_944)">
<path d="M19.0004 34.9978C14.2531 34.9978 9.50462 35.0022 4.7573 34.9957C2.48763 34.9924 0.659915 33.6284 0.141101 31.5457C0.0461551 31.1649 0.0077244 30.7611 0.00659409 30.3683C-0.000187792 24.4965 -0.00244842 18.6248 0.00320315 12.752C0.00546377 10.0888 1.95299 8.16737 4.70191 8.11799C5.83223 8.09823 6.96254 8.10262 8.09285 8.12128C8.39691 8.12567 8.53707 8.0302 8.64671 7.75697C9.31585 6.07369 10.0031 4.39699 10.6881 2.72029C11.3956 0.98543 12.8865 0.00442916 14.8193 0.00223453C17.6033 -0.00105742 20.3861 3.98956e-05 23.1701 0.00223453C25.1063 0.00442916 26.595 0.978846 27.307 2.7148C27.9943 4.3915 28.6781 6.0693 29.3473 7.75148C29.4546 8.02142 29.588 8.12567 29.8966 8.12128C31.1117 8.10592 32.3279 8.09384 33.5419 8.12896C35.9879 8.20028 37.941 10.1195 37.9851 12.4985C38.0145 14.0863 37.993 15.6741 37.9942 17.2619C37.9942 21.5875 37.9942 25.9132 37.9942 30.2388C37.9942 33.0885 36.0206 34.9968 33.075 34.9978C28.3842 34.9978 23.6934 34.9978 19.0015 34.9978H19.0004ZM15.9112 24.5492C15.9112 24.7577 15.9112 24.9058 15.9112 25.054C15.9112 26.1348 15.9056 27.2168 15.9146 28.2976C15.9191 28.9077 16.1961 29.1711 16.8245 29.1733C18.2792 29.1777 19.7351 29.1788 21.1898 29.1733C21.7911 29.1711 22.0726 28.9034 22.0782 28.3185C22.0884 27.2234 22.0816 26.1282 22.0816 25.0342C22.0816 24.8872 22.0816 24.7401 22.0816 24.5503C22.2828 24.5503 22.4354 24.5503 22.588 24.5503C23.7183 24.5503 24.8486 24.5558 25.9789 24.547C26.5667 24.5426 26.8696 24.2496 26.873 23.6823C26.8809 22.2591 26.8809 20.8359 26.873 19.4127C26.8696 18.8454 26.5667 18.5666 25.9699 18.5633C24.8678 18.5579 23.7658 18.5611 22.6637 18.5611C22.4851 18.5611 22.3065 18.5611 22.0827 18.5611C22.0827 18.3636 22.0827 18.2166 22.0827 18.0684C22.0827 17.0008 22.0861 15.9331 22.0816 14.8654C22.0782 14.1829 21.8137 13.925 21.105 13.9217C19.6921 13.9162 18.2792 13.9151 16.8663 13.9217C16.1814 13.925 15.9169 14.185 15.9135 14.8456C15.9078 15.9265 15.9112 17.0084 15.9112 18.0893C15.9112 18.2352 15.9112 18.3812 15.9112 18.56C14.6102 18.56 13.3692 18.559 12.1292 18.56C11.3764 18.5611 11.1198 18.8146 11.1187 19.5542C11.1176 20.8545 11.1187 22.1549 11.1187 23.4552C11.1187 24.3275 11.3459 24.547 12.249 24.5481C13.4483 24.5481 14.6475 24.5481 15.9124 24.5481L15.9112 24.5492ZM11.1323 8.08068H26.8278C26.8097 7.99289 26.8075 7.93803 26.7871 7.88974C26.188 6.41495 25.6014 4.93577 24.9809 3.46975C24.6644 2.72138 24.0495 2.37134 23.2119 2.37244C20.4008 2.37573 17.5897 2.37134 14.7787 2.37573C13.8665 2.37683 13.3047 2.7554 12.9611 3.58278C12.5666 4.53305 12.1812 5.48772 11.7935 6.44019C11.5776 6.97129 11.364 7.50349 11.1311 8.08068H11.1323Z" fill="white"/>
</g>
<defs>
<clipPath id="clip0_379_944">
<rect width="38" height="35" fill="white"/>
</clipPath>
</defs>
</svg>
