<svg width="62" height="38" viewBox="0 0 62 38" fill="none" xmlns="http://www.w3.org/2000/svg">
<path d="M40.7341 18.7477C40.7341 16.8375 41.198 15.0773 42.1258 13.4672C43.0809 11.8299 44.3635 10.5473 45.9736 9.61945C47.5837 8.66433 49.3438 8.18677 51.2541 8.18677C53.1643 8.18677 54.9245 8.66433 56.5346 9.61945C58.1446 10.5473 59.4272 11.8299 60.3824 13.4672C61.3375 15.0773 61.815 16.8375 61.815 18.7477C61.815 20.658 61.3375 22.4318 60.3824 24.0691C59.4272 25.6792 58.1446 26.9618 56.5346 27.9169C54.9245 28.8448 53.1643 29.3087 51.2541 29.3087C49.262 29.3087 47.5427 28.7902 46.0964 27.7532V37.168H40.7341V18.7477ZM51.295 24.1101C52.7959 24.1101 54.0376 23.6052 55.02 22.5955C56.0024 21.5585 56.4936 20.2759 56.4936 18.7477C56.4936 17.2195 56.0024 15.9506 55.02 14.9409C54.0376 13.9039 52.7959 13.3854 51.295 13.3854C49.7941 13.3854 48.5388 13.9039 47.5291 14.9409C46.5194 15.9506 46.0145 17.2195 46.0145 18.7477C46.0145 20.2759 46.5194 21.5585 47.5291 22.5955C48.5388 23.6052 49.7941 24.1101 51.295 24.1101Z" fill="white"/>
<path d="M32.4718 8.51416H37.7932V28.9811H32.4718V8.51416Z" fill="white"/>
<path d="M23.3452 28.9811V0.327393H28.6666V28.9811H23.3452Z" fill="white"/>
<path d="M0 0.327393H5.36234V9.7422C6.80868 8.7052 8.5279 8.1867 10.52 8.1867C12.4303 8.1867 14.1904 8.66427 15.8005 9.61939C17.4106 10.5472 18.6932 11.8298 19.6483 13.4672C20.6034 15.0772 21.081 16.8374 21.081 18.7477C21.081 20.6579 20.6034 22.4317 19.6483 24.0691C18.6932 25.6791 17.4106 26.9617 15.8005 27.9169C14.1904 28.8447 12.4303 29.3086 10.52 29.3086C8.60977 29.3086 6.84961 28.8447 5.23954 27.9169C3.62947 26.9617 2.34688 25.6791 1.39175 24.0691C0.463918 22.4317 0 20.6579 0 18.7477V0.327393ZM10.561 13.3853C9.06004 13.3853 7.80473 13.9038 6.79503 14.9408C5.78533 15.9505 5.28048 17.2195 5.28048 18.7477C5.28048 20.2759 5.78533 21.5585 6.79503 22.5954C7.80473 23.6052 9.06004 24.11 10.561 24.11C12.0619 24.11 13.3035 23.6052 14.2859 22.5954C15.2684 21.5585 15.7596 20.2759 15.7596 18.7477C15.7596 17.2195 15.2684 15.9505 14.2859 14.9408C13.3035 13.9038 12.0619 13.3853 10.561 13.3853Z" fill="white"/>
<circle cx="35" cy="3" r="3" fill="white"/>
</svg>
