<svg width="61" height="16" viewBox="0 0 61 16" fill="none" xmlns="http://www.w3.org/2000/svg">
<path d="M10.3255 0.776665C9.56089 0.25951 8.56318 0.000305176 7.33233 0.000305176H2.56717C2.18984 0.000305176 1.98138 0.185976 1.94178 0.556959L0.00607614 12.5123C-0.0140419 12.6297 0.0158165 12.7371 0.0953785 12.8347C0.174485 12.9325 0.273983 12.9811 0.393144 12.9811H2.65656C3.05356 12.9811 3.27176 12.7959 3.31181 12.4245L3.84781 9.20135C3.86738 9.04515 3.9372 8.91814 4.05636 8.82034C4.17543 8.72271 4.32436 8.65885 4.50306 8.62965C4.68175 8.60063 4.85025 8.58594 5.00938 8.58594C5.16805 8.58594 5.35657 8.59588 5.57532 8.61532C5.79353 8.63476 5.93263 8.64434 5.99225 8.64434C7.69965 8.64434 9.03982 8.17098 10.0129 7.22319C10.9854 6.27594 11.4723 4.96236 11.4723 3.28192C11.4723 2.12938 11.0897 1.29436 10.3255 0.776396V0.776665ZM7.8686 4.36648C7.76901 5.05031 7.51121 5.4994 7.09428 5.71436C6.67727 5.92959 6.08164 6.03671 5.30742 6.03671L4.32454 6.06591L4.83096 2.93046C4.87046 2.71577 4.99946 2.60829 5.21802 2.60829H5.78406C6.57786 2.60829 7.154 2.72088 7.51139 2.94515C7.8686 3.16996 7.98776 3.64386 7.8686 4.36648Z" fill="#003087"/>
<path d="M60.6125 0H58.4089C58.1899 0 58.061 0.107481 58.0217 0.322529L56.0858 12.5125L56.0559 12.5711C56.0559 12.6692 56.0956 12.7616 56.1753 12.8495C56.2542 12.9373 56.3539 12.9813 56.4729 12.9813H58.4389C58.8155 12.9813 59.024 12.7961 59.0643 12.4246L61 0.43977V0.410662C60.9999 0.137037 60.8705 0.000359435 60.6125 0.000359435V0Z" fill="#009CDE"/>
<path d="M33.9875 4.71832C33.9875 4.62087 33.9476 4.5279 33.8687 4.44022C33.789 4.35235 33.6996 4.30811 33.6006 4.30811H31.3074C31.0885 4.30811 30.9098 4.40627 30.7711 4.60108L27.6143 9.17244L26.3039 4.77707C26.2041 4.46476 25.986 4.30811 25.6487 4.30811H23.4147C23.3152 4.30811 23.2259 4.35217 23.147 4.44022C23.0673 4.5279 23.0278 4.62105 23.0278 4.71832C23.0278 4.75764 23.2215 5.33373 23.6085 6.44721C23.9956 7.56106 24.4125 8.7625 24.8593 10.0519C25.3061 11.341 25.5392 12.0251 25.5592 12.1026C23.931 14.2909 23.1172 15.4629 23.1172 15.619C23.1172 15.8732 23.246 16 23.5044 16H25.7976C26.0159 16 26.1945 15.9025 26.3338 15.7071L33.9283 4.92334C33.9677 4.88464 33.9875 4.81657 33.9875 4.71823V4.71832Z" fill="#003087"/>
<path d="M55.3418 4.30813H53.0783C52.8 4.30813 52.6319 4.63057 52.5722 5.27536C52.0554 4.49416 51.1129 4.10303 49.7426 4.10303C48.3131 4.10303 47.0968 4.63057 46.0944 5.68548C45.0916 6.74039 44.5905 7.98124 44.5905 9.40714C44.5905 10.5599 44.9329 11.478 45.6178 12.1615C46.3028 12.8457 47.2209 13.1871 48.3729 13.1871C48.9486 13.1871 49.5343 13.0697 50.1299 12.8355C50.7256 12.6011 51.1917 12.2887 51.5299 11.8978C51.5299 11.9174 51.5096 12.005 51.4704 12.1612C51.4302 12.3178 51.4107 12.4354 51.4107 12.5128C51.4107 12.8258 51.5394 12.9816 51.7979 12.9816H53.8531C54.2298 12.9816 54.4485 12.7964 54.5078 12.425L55.7291 4.77692C55.7487 4.65959 55.719 4.55238 55.6397 4.45457C55.5599 4.35713 55.4609 4.30813 55.3418 4.30813ZM51.4553 10.081C50.949 10.5694 50.3383 10.8135 49.6236 10.8135C49.0476 10.8135 48.5814 10.6575 48.2238 10.3447C47.8662 10.0328 47.6875 9.60302 47.6875 9.05541C47.6875 8.33315 47.9358 7.72213 48.4324 7.22405C48.928 6.72588 49.5441 6.47689 50.2788 6.47689C50.8342 6.47689 51.296 6.63802 51.6636 6.96019C52.0306 7.28263 52.2148 7.72705 52.2148 8.29374C52.2147 8.99692 51.9615 9.5929 51.4553 10.081Z" fill="#009CDE"/>
<path d="M21.5088 4.30813H19.2453C18.9669 4.30813 18.7985 4.63057 18.7389 5.27536C18.2028 4.49416 17.2596 4.10303 15.9095 4.10303C14.48 4.10303 13.2637 4.63057 12.2611 5.68548C11.2583 6.74039 10.7572 7.98124 10.7572 9.40714C10.7572 10.5599 11.0998 11.478 11.7848 12.1615C12.4698 12.8457 13.3878 13.1871 14.5396 13.1871C15.0952 13.1871 15.6714 13.0697 16.2669 12.8355C16.8625 12.6011 17.3391 12.2887 17.6965 11.8978C17.6168 12.132 17.5773 12.3372 17.5773 12.5128C17.5773 12.8258 17.7063 12.9816 17.9645 12.9816H20.0194C20.3964 12.9816 20.6151 12.7964 20.6747 12.425L21.8957 4.77692C21.9153 4.65959 21.8856 4.55238 21.8064 4.45457C21.7269 4.35713 21.6278 4.30813 21.5088 4.30813ZM17.6222 10.0955C17.1158 10.5747 16.495 10.8135 15.7609 10.8135C15.1847 10.8135 14.7231 10.6575 14.3759 10.3447C14.0283 10.0328 13.8547 9.60302 13.8547 9.05541C13.8547 8.33315 14.1027 7.72213 14.5993 7.22405C15.0953 6.72588 15.7109 6.4768 16.4458 6.4768C17.0015 6.4768 17.4631 6.63802 17.8308 6.96019C18.1978 7.28263 18.3817 7.72705 18.3817 8.29374C18.3816 9.01654 18.1285 9.61744 17.6222 10.0955Z" fill="#003087"/>
<path d="M44.1584 0.776543C43.3939 0.259388 42.3965 0.000183105 41.1654 0.000183105H36.4299C36.0327 0.000183105 35.8141 0.185853 35.7747 0.556837L33.8388 12.5121C33.8187 12.6296 33.8486 12.7369 33.9282 12.8346C34.007 12.9324 34.1067 12.981 34.2259 12.981H36.6679C36.9062 12.981 37.0649 12.8542 37.1446 12.6002L37.6807 9.20123C37.7004 9.04503 37.7699 8.91802 37.8892 8.82021C38.0084 8.72259 38.1571 8.65873 38.336 8.62953C38.5145 8.60051 38.683 8.58582 38.8422 8.58582C39.001 8.58582 39.1894 8.59576 39.408 8.6152C39.6263 8.63463 39.7658 8.64421 39.8249 8.64421C41.5327 8.64421 42.8726 8.17086 43.8456 7.22307C44.8186 6.27582 45.305 4.96224 45.305 3.2818C45.3051 2.12926 44.9226 1.29415 44.1584 0.776274V0.776543ZM41.1058 5.59691C40.669 5.88988 40.0136 6.03632 39.1403 6.03632L38.1871 6.06569L38.6934 2.93016C38.7327 2.71556 38.8618 2.6079 39.0805 2.6079H39.6164C40.0532 2.6079 40.4006 2.62752 40.6591 2.66648C40.9168 2.70571 41.1654 2.82761 41.4036 3.03263C41.642 3.23782 41.761 3.5359 41.761 3.92641C41.761 4.74719 41.5423 5.30367 41.1058 5.59691Z" fill="#009CDE"/>
</svg>
