<svg width="67" height="13" viewBox="0 0 67 13" fill="none" xmlns="http://www.w3.org/2000/svg">
<path d="M11.0371 0.165537C11.497 0.938032 11.6612 1.71053 11.6612 2.63752C11.6612 5.7275 9.05524 9.91001 6.90913 12.691L1.99281 12.691L-1.38927e-07 0.794568L4.4455 0.485572L5.51855 8.99405C6.43831 7.44906 7.6756 4.81154 7.6756 3.12309C7.6756 2.19609 7.52231 1.5781 7.21572 0.949067L11.0371 0.165537ZM16.7089 5.42954C17.4754 5.42954 19.4682 5.12054 19.4682 3.88455C19.4682 3.25552 19.1616 3.11206 18.7017 3.11206C17.7929 3.11206 16.7089 4.03905 16.7089 5.42954ZM16.5666 7.74703C16.5666 9.14855 17.3331 9.75552 18.4061 9.75552C19.4792 9.75552 20.5632 9.44651 21.9319 8.82852L21.3077 12.2275C20.388 12.691 18.855 13 17.3221 13C13.654 13 12.2634 10.6825 12.2634 7.90153C12.2634 4.20459 14.4205 0.331072 18.855 0.331073C21.3077 0.331073 22.6874 1.7326 22.6874 3.73005C22.8516 6.66553 18.855 7.74703 16.5666 7.74703ZM35.2683 2.94652C35.2683 3.41002 35.2683 4.02802 35.1151 4.49151L33.8887 12.68L29.7498 12.68L30.9761 5.10951C30.9761 4.95501 31.1294 4.48048 31.1294 4.33701C31.1294 3.70798 30.8228 3.70799 30.363 3.70799C29.7388 3.70799 29.2899 4.01698 28.9724 4.17148L27.4394 12.68L23.2896 12.68L25.1291 0.309004L28.7972 0.309005L28.7972 1.236C29.7169 0.606967 30.79 5.38349e-06 32.3229 5.65152e-06C34.5019 0.331075 35.2683 1.40153 35.2683 2.94652ZM47.6851 1.56707C48.9114 0.640077 49.9845 0.165543 51.5174 0.165544C53.6745 0.165544 54.4409 1.24704 54.4409 2.94653C54.4409 3.41002 54.4409 4.02802 54.2876 4.49152L53.0722 12.691L48.9224 12.691L50.1487 4.96605L50.1487 4.33702C50.1487 3.70798 49.8421 3.56452 49.3823 3.56452C48.9224 3.56452 48.3092 3.71902 47.9917 4.02802L46.612 12.68L42.4622 12.68L43.6885 4.95501L43.6885 4.32598C43.6885 3.69695 43.3819 3.55349 42.922 3.55349C42.2979 3.55349 41.849 3.86249 41.5315 4.01698L40.1518 12.6579L36.002 12.6579L37.8524 0.29797L41.3782 0.297971L41.5315 1.37946C42.2979 0.750431 43.5243 0.143473 45.0572 0.143473C46.3054 0.331079 47.2142 0.794576 47.6851 1.56707ZM62.7078 5.27505C62.7078 4.19355 62.4012 3.57556 61.6347 3.57556C59.9485 3.57556 59.6419 6.52208 59.6419 8.05603C59.6419 9.13752 59.9485 9.91002 60.715 9.91002C62.4122 9.75552 62.7078 6.66554 62.7078 5.27505ZM55.503 7.74703C55.503 3.88456 57.4958 0.176581 62.2479 0.176582C65.7737 0.176582 67 2.3506 67 5.13159C67 8.99406 65.0072 12.8565 60.2551 12.8565C56.7294 13 55.503 10.6825 55.503 7.74703Z" fill="#3D95CE"/>
</svg>
