<svg width="43" height="14" viewBox="0 0 43 14" fill="none" xmlns="http://www.w3.org/2000/svg">
<g clip-path="url(#clip0_2_257)">
<path fill-rule="evenodd" clip-rule="evenodd" d="M31.2556 0.5586C30.5636 0.2891 29.4852 0 28.1348 0C24.6948 0 22.2727 1.8046 22.2525 4.39145C22.2323 6.30385 23.9792 7.36995 25.3028 8.00695C26.6566 8.659 27.1102 9.07515 27.1068 9.65755C27.0967 10.5493 26.0217 10.9567 25.024 10.9567C23.6298 10.9567 22.8874 10.7551 21.7452 10.2585L21.2984 10.0468L20.808 13.0259C21.6209 13.3969 23.1259 13.7189 24.688 13.7357C28.3464 13.7357 30.7215 11.9518 30.7484 9.18925C30.7618 7.6755 29.8346 6.52365 27.8257 5.57375C26.6096 4.95775 25.8638 4.54755 25.8705 3.9242C25.8705 3.3712 26.5021 2.7797 27.866 2.7797C29.0048 2.76115 29.8279 3.0198 30.4695 3.2893L30.782 3.4433L31.2556 0.5586ZM40.1815 0.2436H37.4906C36.6575 0.2436 36.036 0.4809 35.6698 1.3475L30.4998 13.5426H34.1548C34.1548 13.5426 34.7527 11.9028 34.8871 11.543C35.2869 11.543 38.8377 11.5486 39.345 11.5486C39.4491 12.0141 39.7683 13.5426 39.7683 13.5426H43L40.1815 0.24395V0.2436ZM15.1474 13.5387L17.3243 0.231H20.8046L18.6277 13.538H15.1474V13.5387ZM8.45555 7.4718L8.82172 9.3163L12.2281 0.2401H15.9167L10.4342 13.5226L6.75234 13.5261L3.655 1.9691C2.58672 1.351 1.36727 0.854 0 0.5096L0.0436719 0.2324H5.65719C6.41305 0.2618 7.02445 0.51345 7.23609 1.3559L8.45555 7.4711V7.4718ZM35.8882 8.8214C36.1771 8.0549 37.2756 5.1016 37.2756 5.1016C37.2555 5.1366 37.5612 4.3309 37.7392 3.8311L37.9744 4.9791C37.9744 4.9791 38.6395 8.15535 38.7806 8.8214H35.8882Z" fill="#207EED"/>
</g>
<defs>
<clipPath id="clip0_2_257">
<rect width="43" height="14" fill="white"/>
</clipPath>
</defs>
</svg>
